# Rhino

v 20.000007716851542 12.500000000000171 -19.999998773040716
v 20.000007716851542 11.250000000000171 -19.999998773040716
v -19.999992283148458 12.500000000000171 -19.999998773040716
v -19.999992283148458 11.250000000000171 -19.999998773040716
v 20.000007716851542 1.25 -19.999998773040716
v 20.000007716851542 0 -19.999998773040716
v -19.999992283148458 1.25 -19.999998773040716
v -19.999992283148458 0 -19.999998773040716
v -14.999992283148458 1.25 -13.749998773040716
v -14.999992283148458 11.250000000000171 -13.749998773040716
v -14.999992283148458 1.25 -12.499998773040716
v -14.999992283148458 11.250000000000171 -12.499998773040716
v -14.999992283148458 1.25 -12.499998773040716
v -14.999992283148458 11.250000000000171 -12.499998773040716
v -1.2499922831484582 1.25 -12.499998773040716
v -1.2499922831484582 11.250000000000171 -12.499998773040716
v 1.2500077168515418 1.25 -12.499998773040716
v 1.2500077168515418 11.250000000000171 -12.499998773040716
v 15.000007716851542 1.25 -12.499998773040716
v 15.000007716851542 11.250000000000171 -12.499998773040716
v 15.000007716851542 1.25 -12.499998773040716
v 15.000007716851542 11.250000000000171 -12.499998773040716
v 15.000007716851542 1.25 -13.749998773040716
v 15.000007716851542 11.250000000000171 -13.749998773040716
v 15.000007716851542 1.25 -13.749998773040716
v 15.000007716851542 11.250000000000171 -13.749998773040716
v -14.999992283148458 1.25 -13.749998773040716
v -14.999992283148458 11.250000000000171 -13.749998773040716
v -19.999992283148458 12.500000000000171 20.000001226959284
v -19.999992283148458 11.250000000000171 20.000001226959284
v 20.000007716851542 12.500000000000171 20.000001226959284
v 20.000007716851542 11.250000000000171 20.000001226959284
v -19.999992283148458 12.500000000000171 -19.999998773040716
v -19.999992283148458 11.250000000000171 -19.999998773040716
v -19.999992283148458 12.500000000000171 20.000001226959284
v -19.999992283148458 11.250000000000171 20.000001226959284
v 20.000007716851542 12.500000000000171 20.000001226959284
v 20.000007716851542 11.250000000000171 20.000001226959284
v 20.000007716851542 12.500000000000171 -19.999998773040716
v 20.000007716851542 11.250000000000171 -19.999998773040716
v -19.999992283148458 12.500000000000171 -19.999998773040716
v -19.999992283148458 12.500000000000171 20.000001226959284
v 20.000007716851542 12.500000000000171 -19.999998773040716
v 20.000007716851542 12.500000000000171 20.000001226959284
v -19.999992283148458 11.250000000000171 -19.999998773040716
v -19.999992283148458 11.250000000000171 20.000001226959284
v 20.000007716851542 11.250000000000171 -19.999998773040716
v 20.000007716851542 11.250000000000171 20.000001226959284
v -14.999992283148458 11.250000000000171 -13.749998773040716
v -14.999992283148458 11.250000000000171 -12.499998773040716
v -1.2499922831484582 11.250000000000171 -12.499998773040716
v 1.2500077168515418 11.250000000000171 -12.499998773040716
v 15.000007716851542 11.250000000000171 -12.499998773040716
v 15.000007716851542 11.250000000000171 -13.749998773040716
v -1.2499922831484582 11.250000000000171 -2.4999987730407156
v -2.4999922831484582 11.250000000000171 -2.4999987730407156
v -2.4999922831484582 11.250000000000171 1.2269592843949795E-06
v 2.5000077168515418 11.250000000000171 1.2269592843949795E-06
v 2.5000077168515418 11.250000000000171 -2.4999987730407156
v 1.2500077168515418 11.250000000000171 -2.4999987730407156
v 5.0000077168515418 11.250000000000171 17.500001226959284
v 5.0000077168515418 11.250000000000171 18.750001226959284
v 15.000007716851542 11.250000000000171 18.750001226959284
v 15.000007716851542 11.250000000000171 17.500001226959284
v -14.999992283148458 11.250000000000171 17.500001226959284
v -14.999992283148458 11.250000000000171 18.750001226959284
v -4.9999922831484582 11.250000000000171 18.750001226959284
v -4.9999922831484582 11.250000000000171 17.500001226959284
v 10.000007716851542 11.250000000000171 17.500001226959284
v -9.9999922831484582 11.250000000000171 17.500001226959284
v -19.999992283148458 1.25 20.000001226959284
v -19.999992283148458 0 20.000001226959284
v 20.000007716851542 1.25 20.000001226959284
v 20.000007716851542 0 20.000001226959284
v -19.999992283148458 1.25 -19.999998773040716
v -19.999992283148458 0 -19.999998773040716
v -19.999992283148458 1.25 20.000001226959284
v -19.999992283148458 0 20.000001226959284
v 20.000007716851542 1.25 20.000001226959284
v 20.000007716851542 0 20.000001226959284
v 20.000007716851542 1.25 -19.999998773040716
v 20.000007716851542 0 -19.999998773040716
v -19.999992283148458 1.25 -19.999998773040716
v -19.999992283148458 1.25 20.000001226959284
v 20.000007716851542 1.25 -19.999998773040716
v 20.000007716851542 1.25 20.000001226959284
v -14.999992283148458 1.25 -13.749998773040716
v -14.999992283148458 1.25 -12.499998773040716
v -1.2499922831484582 1.25 -12.499998773040716
v 1.2500077168515418 1.25 -12.499998773040716
v 15.000007716851542 1.25 -12.499998773040716
v 15.000007716851542 1.25 -13.749998773040716
v -1.2499922831484582 1.25 -2.4999987730407156
v -2.4999922831484582 1.25 -2.4999987730407156
v -2.4999922831484582 1.25 1.2269592843949795E-06
v 2.5000077168515418 1.25 1.2269592843949795E-06
v 2.5000077168515418 1.25 -2.4999987730407156
v 1.2500077168515418 1.25 -2.4999987730407156
v 5.0000077168515418 1.25 17.500001226959284
v 5.0000077168515418 1.25 18.750001226959284
v 15.000007716851542 1.25 18.750001226959284
v 15.000007716851542 1.25 17.500001226959284
v -14.999992283148458 1.25 17.500001226959284
v -14.999992283148458 1.25 18.750001226959284
v -4.9999922831484582 1.25 18.750001226959284
v -4.9999922831484582 1.25 17.500001226959284
v 10.000007716851542 1.25 17.500001226959284
v -9.9999922831484582 1.25 17.500001226959284
v -19.999992283148458 0 -19.999998773040716
v -19.999992283148458 0 20.000001226959284
v 20.000007716851542 0 -19.999998773040716
v 20.000007716851542 0 20.000001226959284
v -1.2499922831484582 1.25 -12.499998773040716
v -1.2499922831484582 11.250000000000171 -12.499998773040716
v -1.2499922831484582 1.25 -2.4999987730407156
v -1.2499922831484582 11.250000000000171 -2.4999987730407156
v -1.2499922831484582 1.25 -2.4999987730407156
v -1.2499922831484582 11.250000000000171 -2.4999987730407156
v -2.4999922831484582 1.25 -2.4999987730407156
v -2.4999922831484582 11.250000000000171 -2.4999987730407156
v -2.4999922831484582 1.25 -2.4999987730407156
v -2.4999922831484582 11.250000000000171 -2.4999987730407156
v -2.4999922831484582 1.25 1.2269592843949795E-06
v -2.4999922831484582 11.250000000000171 1.2269592843949795E-06
v -2.4999922831484582 1.25 1.2269592843949795E-06
v -2.4999922831484582 11.250000000000171 1.2269592843949795E-06
v 2.5000077168515418 1.25 1.2269592843949795E-06
v 2.5000077168515418 11.250000000000171 1.2269592843949795E-06
v 2.5000077168515418 1.25 1.2269592843949795E-06
v 2.5000077168515418 11.250000000000171 1.2269592843949795E-06
v 2.5000077168515418 1.25 -2.4999987730407156
v 2.5000077168515418 11.250000000000171 -2.4999987730407156
v 2.5000077168515418 1.25 -2.4999987730407156
v 2.5000077168515418 11.250000000000171 -2.4999987730407156
v 1.2500077168515418 1.25 -2.4999987730407156
v 1.2500077168515418 11.250000000000171 -2.4999987730407156
v 1.2500077168515418 1.25 -2.4999987730407156
v 1.2500077168515418 11.250000000000171 -2.4999987730407156
v 1.2500077168515418 1.25 -12.499998773040716
v 1.2500077168515418 11.250000000000171 -12.499998773040716
v 5.0000077168515418 1.25 17.500001226959284
v 5.0000077168515418 11.250000000000171 17.500001226959284
v 5.0000077168515418 1.25 18.750001226959284
v 5.0000077168515418 11.250000000000171 18.750001226959284
v 5.0000077168515418 1.25 18.750001226959284
v 5.0000077168515418 11.250000000000171 18.750001226959284
v 15.000007716851542 1.25 18.750001226959284
v 15.000007716851542 11.250000000000171 18.750001226959284
v 15.000007716851542 1.25 18.750001226959284
v 15.000007716851542 11.250000000000171 18.750001226959284
v 15.000007716851542 1.25 17.500001226959284
v 15.000007716851542 11.250000000000171 17.500001226959284
v -14.999992283148458 1.25 17.500001226959284
v -14.999992283148458 11.250000000000171 17.500001226959284
v -14.999992283148458 1.25 18.750001226959284
v -14.999992283148458 11.250000000000171 18.750001226959284
v -14.999992283148458 1.25 18.750001226959284
v -14.999992283148458 11.250000000000171 18.750001226959284
v -4.9999922831484582 1.25 18.750001226959284
v -4.9999922831484582 11.250000000000171 18.750001226959284
v -4.9999922831484582 1.25 18.750001226959284
v -4.9999922831484582 11.250000000000171 18.750001226959284
v -4.9999922831484582 1.25 17.500001226959284
v -4.9999922831484582 11.250000000000171 17.500001226959284
v -4.9999922831484582 1.25 17.500001226959284
v -4.9999922831484582 11.250000000000171 17.500001226959284
v -14.999992283148458 1.25 17.500001226959284
v -14.999992283148458 11.250000000000171 17.500001226959284
v -9.9999922831484582 11.250000000000171 17.500001226959284
v -9.9999922831484582 1.25 17.500001226959284
v 15.000007716851542 1.25 17.500001226959284
v 15.000007716851542 11.250000000000171 17.500001226959284
v 5.0000077168515418 1.25 17.500001226959284
v 5.0000077168515418 11.250000000000171 17.500001226959284
v 10.000007716851542 11.250000000000171 17.500001226959284
v 10.000007716851542 1.25 17.500001226959284
vn 0 0 -1
vn 0 0 -1
vn 0 0 -1
vn 0 0 -1
vn 0 0 -1
vn 0 0 -1
vn 0 0 -1
vn 0 0 -1
vn -1 0 0
vn -1 0 0
vn -1 0 0
vn -1 0 0
vn 0 0 1
vn 0 0 1
vn 0 0 1
vn 0 0 1
vn 0 0 1
vn 0 0 1
vn 0 0 1
vn 0 0 1
vn 1 0 0
vn 1 0 0
vn 1 0 0
vn 1 0 0
vn 0 0 -1
vn 0 0 -1
vn 0 0 -1
vn 0 0 -1
vn 0 0 1
vn 0 0 1
vn 0 0 1
vn 0 0 1
vn -1 0 0
vn -1 0 0
vn -1 0 0
vn -1 0 0
vn 1 0 0
vn 1 0 0
vn 1 0 0
vn 1 0 0
vn 0 1 0
vn 0 1 0
vn 0 1 0
vn 0 1 0
vn 0 -1 0
vn 0 -1 0
vn 0 -1 0
vn 0 -1 0
vn 0 -1 0
vn 0 -1 0
vn 0 -1 0
vn 0 -1 0
vn 0 -1 0
vn 0 -1 0
vn 0 -1 0
vn 0 -1 0
vn 0 -1 0
vn 0 -1 0
vn 0 -1 0
vn 0 -1 0
vn 0 -1 0
vn 0 -1 0
vn 0 -1 0
vn 0 -1 0
vn 0 -1 0
vn 0 -1 0
vn 0 -1 0
vn 0 -1 0
vn 0 -1 0
vn 0 -1 0
vn 0 0 1
vn 0 0 1
vn 0 0 1
vn 0 0 1
vn -1 0 0
vn -1 0 0
vn -1 0 0
vn -1 0 0
vn 1 0 0
vn 1 0 0
vn 1 0 0
vn 1 0 0
vn 0 1 0
vn 0 1 0
vn 0 1 0
vn 0 1 0
vn 0 1 0
vn 0 1 0
vn 0 1 0
vn 0 1 0
vn 0 1 0
vn 0 1 0
vn 0 1 0
vn 0 1 0
vn 0 1 0
vn 0 1 0
vn 0 1 0
vn 0 1 0
vn 0 1 0
vn 0 1 0
vn 0 1 0
vn 0 1 0
vn 0 1 0
vn 0 1 0
vn 0 1 0
vn 0 1 0
vn 0 1 0
vn 0 1 0
vn 0 -1 0
vn 0 -1 0
vn 0 -1 0
vn 0 -1 0
vn -1 0 0
vn -1 0 0
vn -1 0 0
vn -1 0 0
vn 0 0 -1
vn 0 0 -1
vn 0 0 -1
vn 0 0 -1
vn -1 0 0
vn -1 0 0
vn -1 0 0
vn -1 0 0
vn 0 0 1
vn 0 0 1
vn 0 0 1
vn 0 0 1
vn 1 0 0
vn 1 0 0
vn 1 0 0
vn 1 0 0
vn 0 0 -1
vn 0 0 -1
vn 0 0 -1
vn 0 0 -1
vn 1 0 0
vn 1 0 0
vn 1 0 0
vn 1 0 0
vn -1 0 0
vn -1 0 0
vn -1 0 0
vn -1 0 0
vn 0 0 1
vn 0 0 1
vn 0 0 1
vn 0 0 1
vn 1 0 0
vn 1 0 0
vn 1 0 0
vn 1 0 0
vn -1 0 0
vn -1 0 0
vn -1 0 0
vn -1 0 0
vn 0 0 1
vn 0 0 1
vn 0 0 1
vn 0 0 1
vn 1 0 0
vn 1 0 0
vn 1 0 0
vn 1 0 0
vn 0 0 -1
vn 0 0 -1
vn 0 0 -1
vn 0 0 -1
vn 0 0 -1
vn 0 0 -1
vn 0 0 -1
vn 0 0 -1
vn 0 0 -1
vn 0 0 -1
vn 0 0 -1
vn 0 0 -1
f 2//2 4//4 3//3 1//1
f 6//6 8//8 7//7 5//5
f 10//10 9//9 11//11 12//12
f 14//14 13//13 15//15 16//16
f 18//18 17//17 19//19 20//20
f 22//22 21//21 23//23 24//24
f 26//26 25//25 27//27 28//28
f 30//30 32//32 31//31 29//29
f 34//34 36//36 35//35 33//33
f 38//38 40//40 39//39 37//37
f 42//42 44//44 43//43 41//41
f 50//50 45//45 49//49
f 49//49 45//45 54//54
f 46//46 45//45 50//50
f 55//55 56//56 51//51
f 50//50 51//51 56//56
f 57//57 50//50 56//56
f 66//66 46//46 65//65
f 65//65 46//46 50//50
f 67//67 46//46 66//66
f 61//61 68//68 57//57
f 70//70 57//57 68//68
f 67//67 68//68 61//61
f 65//65 57//57 70//70
f 65//65 50//50 57//57
f 62//62 46//46 67//67
f 60//60 52//52 59//59
f 53//53 59//59 52//52
f 53//53 54//54 47//47
f 48//48 53//53 47//47
f 54//54 45//45 47//47
f 58//58 59//59 53//53
f 61//61 62//62 67//67
f 69//69 61//61 58//58
f 61//61 57//57 58//58
f 58//58 64//64 69//69
f 62//62 63//63 48//48
f 64//64 48//48 63//63
f 64//64 58//58 53//53
f 64//64 53//53 48//48
f 46//46 62//62 48//48
f 72//72 74//74 73//73 71//71
f 76//76 78//78 77//77 75//75
f 80//80 82//82 81//81 79//79
f 88//88 87//87 83//83
f 87//87 92//92 83//83
f 84//84 88//88 83//83
f 93//93 89//89 94//94
f 88//88 94//94 89//89
f 95//95 94//94 88//88
f 104//104 103//103 84//84
f 103//103 88//88 84//84
f 105//105 104//104 84//84
f 99//99 95//95 106//106
f 108//108 106//106 95//95
f 105//105 99//99 106//106
f 103//103 108//108 95//95
f 103//103 95//95 88//88
f 100//100 105//105 84//84
f 98//98 97//97 90//90
f 91//91 90//90 97//97
f 91//91 85//85 92//92
f 86//86 85//85 91//91
f 92//92 85//85 83//83
f 96//96 91//91 97//97
f 99//99 105//105 100//100
f 107//107 96//96 99//99
f 99//99 96//96 95//95
f 96//96 107//107 102//102
f 100//100 86//86 101//101
f 102//102 101//101 86//86
f 102//102 91//91 96//96
f 102//102 86//86 91//91
f 84//84 86//86 100//100
f 110//110 109//109 111//111 112//112
f 114//114 113//113 115//115 116//116
f 118//118 117//117 119//119 120//120
f 122//122 121//121 123//123 124//124
f 126//126 125//125 127//127 128//128
f 130//130 129//129 131//131 132//132
f 134//134 133//133 135//135 136//136
f 138//138 137//137 139//139 140//140
f 142//142 141//141 143//143 144//144
f 146//146 145//145 147//147 148//148
f 150//150 149//149 151//151 152//152
f 154//154 153//153 155//155 156//156
f 158//158 157//157 159//159 160//160
f 162//162 161//161 163//163 164//164
f 166//166 165//165 170//170 169//169
f 167//167 168//168 169//169 170//170
f 172//172 171//171 176//176 175//175
f 173//173 174//174 175//175 176//176
